#!OML:ASF I:\Actors\actors\Patient Classification 2\Patient 1\Session 1\actor1.ASF
:FULLY-SPECIFIED
:DEGREES
501
root -0.601909 18.9225 5.99747 16.6262 -0.416334 0.522021
lowerback 24.1488 0.779715 1.51525
upperback -0.609758 1.57803 0.825476
thorax -14.3057 0.637705 -0.488379
lowerneck -12.0914 -2.5928 -1.19436
upperneck 12.3093 -3.40941 0.870495
head 5.74081 -1.64547 0.181531
rclavicle -2.98177e-015 -2.78299e-015
rhumerus -98.9537 32.5378 -69.865
rradius 72.5515
rwrist 11.338
rhand 6.09907 -8.61492
rfingers 7.12502
rthumb 31.4177 -35.9359
lclavicle -2.98177e-015 -2.78299e-015
lhumerus -101.962 -40.11 85.6892
lradius 83.0122
lwrist 11.0113
lhand 20.2896 -33.1346
lfingers 7.12502
lthumb 44.8048 -9.5585
rfemur -9.18638 0.946153 12.2173
rtibia -7.95139e-015
rfoot -15.4864 -12.9469
rtoes -4.10989
lfemur -19.6965 -3.8866 -13.3631
ltibia 19.9625
lfoot -18.5147 12.4041
ltoes -55.3706
502
root -0.598882 18.9202 5.96699 16.5798 -0.373086 0.514086
lowerback 24.4291 0.794518 1.55242
upperback -0.616322 1.61683 0.841693
thorax -14.4723 0.650697 -0.509734
lowerneck -12.0695 -2.65015 -1.38801
upperneck 12.178 -3.47674 1.05034
head 5.70329 -1.67427 0.264893
rclavicle -1.74931e-014 -1.86858e-014
rhumerus -100.071 30.9771 -72.5035
rradius 75.9262
rwrist 9.70417
rhand 3.49848 -7.61664
rfingers 7.12502
rthumb 28.9368 -35.3912
lclavicle -1.74931e-014 -1.86858e-014
lhumerus -102.141 -39.322 87.5066
lradius 86.5882
lwrist 13.2272
lhand 17.4602 -34.4199
lfingers 7.12502
lthumb 42.1622 -9.88443
rfemur -9.24756 0.911079 12.2261
rtibia 1.59028e-014
rfoot -15.4348 -12.9932
rtoes -4.33222
lfemur -19.849 -3.84875 -13.3665
ltibia 20.1346
lfoot -18.4848 12.3251
ltoes -55.4246
503
root -0.599322 18.9161 5.93158 16.5255 -0.351608 0.563463
lowerback 24.6666 0.777613 1.2937
upperback -0.44902 1.5475 1.02309
thorax -14.4224 0.648892 -0.130484
lowerneck -12.8342 -2.61011 -1.76063
upperneck 12.3156 -3.35263 1.10828
head 5.88176 -1.62305 0.343096
rclavicle 1.27222e-014 5.56597e-015
rhumerus -100.009 29.7336 -74.5654
rradius 79.3489
rwrist 7.87384
rhand 1.16638 -6.99134
rfingers 7.12502
rthumb 26.7071 -35.1268
lclavicle 1.27222e-014 5.56597e-015
lhumerus -101.246 -37.9395 88.9305
lradius 89.9031
lwrist 15.7919
lhand 13.658 -36.5407
lfingers 7.12502
lthumb 38.587 -10.9036
rfemur -9.31634 0.884023 12.1846
rtibia 5.08889e-014
rfoot -15.3955 -13.0628
rtoes -4.76052
lfemur -20.0393 -3.66907 -13.4435
ltibia 20.3565
lfoot -18.4463 12.1151
ltoes -55.4903
504
root -0.600166 18.9091 5.89201 16.4807 -0.361952 0.648122
lowerback 25.0373 0.77516 1.13853
upperback -0.442911 1.51347 1.07323
thorax -14.6317 0.645563 0.0239159
lowerneck -13.0775 -2.61436 -2.0739
upperneck 12.3505 -3.31476 1.24617
head 5.94116 -1.60752 0.437375
rclavicle -1.03368e-014 -1.03368e-014
rhumerus -99.939 28.4054 -76.9291
rradius 82.889
rwrist 6.11288
rhand -1.03179 -6.43791
rfingers 7.12502
rthumb 24.6017 -34.877
lclavicle -1.03368e-014 -1.03368e-014
lhumerus -100.102 -36.5519 90.4478
lradius 92.957
lwrist 18.3779
lhand 10.6375 -37.8442
lfingers 7.12502
lthumb 35.7308 -11.462
rfemur -9.41309 0.875715 12.0985
rtibia -8.74653e-015
rfoot -15.3311 -13.1515
rtoes -5.29135
lfemur -20.2905 -3.3276 -13.5871
ltibia 20.6436
lfoot -18.3778 11.8087
ltoes -55.4802
505
root -0.597967 18.9009 5.84757 16.4017 -0.37715 0.748615
lowerback 25.5775 0.764694 1.09811
upperback -0.46538 1.49373 1.04442
thorax -14.9655 0.63478 0.0143843
lowerneck -13.3629 -2.63595 -2.29984
upperneck 12.3617 -3.31562 1.39068
head 5.99934 -1.60583 0.515918
rclavicle -9.14409e-015 2.38542e-015
rhumerus -99.3624 26.9443 -79.3033
rradius 86.3672
rwrist 4.90651
rhand -2.99797 -5.85539
rfingers 7.12502
rthumb 22.7159 -34.5382
lclavicle -9.14409e-015 2.38542e-015
lhumerus -98.6358 -35.4186 92.0951
lradius 95.8722
lwrist 20.6177
lhand 7.41325 -38.9378
lfingers 7.12502
lthumb 32.669 -11.8683
rfemur -9.48892 0.870407 11.9873
rtibia -2.46493e-014
rfoot -15.2242 -13.2786
rtoes -5.87902
lfemur -20.5588 -2.98528 -13.762
ltibia 21.0078
lfoot -18.3061 11.4966
ltoes -55.4909
506
root -0.594926 18.8925 5.79797 16.3245 -0.378551 0.807192
lowerback 26.2044 0.745297 1.15349
upperback -0.46685 1.49099 1.00891
thorax -15.3204 0.62328 -0.0655218
lowerneck -13.8537 -2.68302 -2.44398
upperneck 12.4171 -3.35232 1.4743
head 6.10441 -1.62107 0.555923
rclavicle -4.37326e-015 1.59028e-015
rhumerus -97.7358 25.1973 -81.3672
rradius 89.5826
rwrist 4.34409
rhand -4.36003 -5.55671
rfingers 7.12502
rthumb 21.4082 -34.394
lclavicle -4.37326e-015 1.59028e-015
lhumerus -96.7722 -34.5351 93.88
lradius 98.7132
lwrist 22.3936
lhand 4.47737 -40.1406
lfingers 7.12502
lthumb 29.8714 -12.5301
rfemur -9.59186 0.86475 11.9245
rtibia 6.36111e-015
rfoot -15.0476 -13.4627
rtoes -6.82642
lfemur -20.891 -2.67084 -13.8856
ltibia 21.4507
lfoot -18.2016 11.1977
ltoes -55.6465
507
root -0.591204 18.8822 5.74491 16.2746 -0.374107 0.789579
lowerback 26.7987 0.716146 1.2534
upperback -0.414578 1.49507 1.01697
thorax -15.5914 0.614161 -0.122586
lowerneck -14.5562 -2.73789 -2.62342
upperneck 12.503 -3.38522 1.55546
head 6.2555 -1.63492 0.598411
rclavicle -6.36111e-015 -7.15625e-015
rhumerus -95.7583 23.8993 -83.8197
rradius 92.7976
rwrist 3.44395
rhand -5.8392 -5.45992
rfingers 7.12502
rthumb 19.9869 -34.452
lclavicle -6.36111e-015 -7.15625e-015
lhumerus -94.3265 -33.7167 95.7309
lradius 101.514
lwrist 24.0592
lhand 2.69596 -41.1666
lfingers 7.12502
lthumb 28.17 -13.2631
rfemur -9.75092 0.869841 11.9308
rtibia -1.59028e-014
rfoot -14.7732 -13.6401
rtoes -7.86504
lfemur -21.3197 -2.30657 -13.9246
ltibia 21.9714
lfoot -18.096 10.8458
ltoes -55.8013
508
root -0.587404 18.8694 5.68998 16.2247 -0.424263 0.792214
lowerback 27.4183 0.697283 1.25127
upperback -0.721597 1.48906 1.0587
thorax -15.5158 0.603732 -0.108187
lowerneck -15.2744 -2.75468 -2.83852
upperneck 12.5335 -3.365 1.70051
head 6.39213 -1.61922 0.672584
rclavicle -1.19271e-015 -1.35174e-014
rhumerus -93.6636 23.3142 -86.7746
rradius 95.9707
rwrist 2.25619
rhand -7.88116 -5.01245
rfingers 7.12502
rthumb 18.0232 -34.1974
lclavicle -1.19271e-015 -1.35174e-014
lhumerus -91.4488 -33.0789 97.6781
lradius 104.289
lwrist 25.3718
lhand 0.951813 -42.3792
lfingers 7.12502
lthumb 26.5017 -14.2127
rfemur -9.92519 0.917723 11.8874
rtibia -8.74653e-015
rfoot -14.4964 -13.789
rtoes -8.70556
lfemur -21.7879 -1.78539 -14.0091
ltibia 22.5623
lfoot -18.0425 10.333
ltoes -55.8376
509
root -0.586176 18.8547 5.63423 16.1881 -0.494227 0.81403
lowerback 28.0787 0.698288 1.20736
upperback -0.690874 1.4922 1.08697
thorax -15.8031 0.605702 -0.0622616
lowerneck -15.996 -2.77718 -2.98083
upperneck 12.5157 -3.35814 1.80148
head 6.51186 -1.6098 0.720169
rclavicle -3.57812e-015 3.18055e-015
rhumerus -90.6294 22.818 -89.6004
rradius 98.8586
rwrist 1.54425
rhand -9.86175 -4.6207
rfingers 7.12502
rthumb 16.1168 -33.9706
lclavicle -3.57812e-015 3.18055e-015
lhumerus -88.0996 -32.6979 99.7293
lradius 107.013
lwrist 26.3195
lhand -1.26202 -43.7347
lfingers 7.12502
lthumb 24.381 -15.2658
rfemur -10.1114 0.978409 11.8252
rtibia -7.15625e-015
rfoot -14.2657 -13.9112
rtoes -9.42288
lfemur -22.2973 -1.15692 -14.1256
ltibia 23.2088
lfoot -17.9775 9.75003
ltoes -55.9093
510
root -0.585066 18.8373 5.58078 16.1373 -0.52107 0.765698
lowerback 28.6769 0.682873 1.30695
upperback -0.621669 1.51723 1.10078
thorax -16.0069 0.606083 -0.11843
lowerneck -16.7236 -2.80339 -3.01019
upperneck 12.4864 -3.36587 1.81188
head 6.62521 -1.60946 0.719099
rclavicle -6.36111e-015 7.95139e-016
rhumerus -86.6643 22.4606 -92.3448
rradius 101.484
rwrist 1.16248
rhand -11.4654 -4.62432
rfingers 7.12502
rthumb 14.5721 -34.0924
lclavicle -6.36111e-015 7.95139e-016
lhumerus -84.2053 -32.7627 101.827
lradius 109.668
lwrist 27.3131
lhand -3.73146 -44.8725
lfingers 7.12502
lthumb 22.0118 -16.1051
rfemur -10.2731 1.02157 11.8515
rtibia -2.54444e-014
rfoot -14.0467 -14.0197
rtoes -9.95343
lfemur -22.8171 -0.62012 -14.1517
ltibia 23.9096
lfoot -17.9278 9.2628
ltoes -55.9977
